<?xml version="1.0" encoding="utf-8"?>
<!-- Generator: Adobe Illustrator 19.2.0, SVG Export Plug-In . SVG Version: 6.00 Build 0)  -->
<svg version="1.1"
	 id="svg3346" xmlns:cc="http://creativecommons.org/ns#" xmlns:dc="http://purl.org/dc/elements/1.1/" xmlns:inkscape="http://www.inkscape.org/namespaces/inkscape" xmlns:rdf="http://www.w3.org/1999/02/22-rdf-syntax-ns#" xmlns:sodipodi="http://sodipodi.sourceforge.net/DTD/sodipodi-0.dtd" xmlns:svg="http://www.w3.org/2000/svg"
	 xmlns="http://www.w3.org/2000/svg" xmlns:xlink="http://www.w3.org/1999/xlink" x="0px" y="0px" viewBox="0 0 64 64"
	 style="enable-background:new 0 0 64 64;" xml:space="preserve">
<style type="text/css">
	.st0{fill:url(#rect4555_1_);stroke:#999999;stroke-width:1.25;stroke-linecap:round;stroke-linejoin:round;}
	.st1{fill:#EE0000;}
	.st2{fill:url(#path3424_1_);}
</style>
<title  id="title4289"></title>
<linearGradient id="rect4555_1_" gradientUnits="userSpaceOnUse" x1="229.5202" y1="-133.788" x2="285.7949" y2="-56.4871" gradientTransform="matrix(0.8 0 0 -0.8 -173.9456 -44.3535)">
	<stop  offset="0" style="stop-color:#EEEEEE"/>
	<stop  offset="0.5" style="stop-color:#FFFFFF"/>
	<stop  offset="1" style="stop-color:#EEEEEE"/>
</linearGradient>
<path id="rect4555" class="st0" d="M14,0.7h36c2.9,0,5.3,2.4,5.3,5.3v52c0,2.9-2.4,5.3-5.3,5.3H14c-2.9,0-5.3-2.4-5.3-5.3V6
	C8.7,3.1,11.1,0.7,14,0.7z"/>
<g id="text4523">
	<path id="path4117" class="st1" d="M22.2,17.8c-0.2-0.5-0.4-1.1-0.6-1.6c-0.2-0.5-0.4-1.1-0.6-1.6h-5.7l-1.1,3.2h-1.8
		c0.5-1.3,0.9-2.5,1.3-3.7c0.4-1.1,0.8-2.2,1.2-3.2c0.4-1,0.8-2,1.2-2.9c0.4-0.9,0.8-1.8,1.2-2.7h1.6C19.5,6.2,20,7.1,20.4,8
		c0.4,0.9,0.8,1.9,1.2,2.9c0.4,1,0.8,2.1,1.2,3.2c0.4,1.1,0.9,2.3,1.4,3.7C24.1,17.8,22.2,17.8,22.2,17.8z M20.6,13.2
		c-0.4-1-0.8-2.1-1.2-3c-0.4-1-0.8-1.9-1.2-2.8c-0.4,0.9-0.8,1.8-1.2,2.8c-0.4,1-0.7,2-1.1,3C15.9,13.2,20.6,13.2,20.6,13.2z"/>
</g>
<radialGradient id="path3424_1_" cx="154.9798" cy="-92.0867" r="15" gradientTransform="matrix(0.8 0 0 -0.8 -84.9994 -26.688)" gradientUnits="userSpaceOnUse">
	<stop  offset="0" style="stop-color:#EE3333"/>
	<stop  offset="1" style="stop-color:#EE0000"/>
</radialGradient>
<path id="path3424" class="st2" d="M33.7,35c-4,0-6.8,2.1-6.8,7.4c0,4.9,9.9,10.1,12,16.6c0,0,0,0.1,0,0.1c0,0,0,0,0,0c0,0,0,0,0,0
	c0,0,0,0,0-0.1c2.1-6.5,12-11.7,12-16.6c0-5.2-2.7-7.4-6.8-7.4c-2.9,0-4.5,1.8-5.2,2.6C38.2,36.7,36.6,35,33.7,35z"/>
</svg>
