<?xml version="1.0" encoding="utf-8"?>
<!-- Generator: Adobe Illustrator 19.2.0, SVG Export Plug-In . SVG Version: 6.00 Build 0)  -->
<svg version="1.1"
	 id="svg3346" xmlns:cc="http://creativecommons.org/ns#" xmlns:dc="http://purl.org/dc/elements/1.1/" xmlns:inkscape="http://www.inkscape.org/namespaces/inkscape" xmlns:rdf="http://www.w3.org/1999/02/22-rdf-syntax-ns#" xmlns:sodipodi="http://sodipodi.sourceforge.net/DTD/sodipodi-0.dtd" xmlns:svg="http://www.w3.org/2000/svg"
	 xmlns="http://www.w3.org/2000/svg" xmlns:xlink="http://www.w3.org/1999/xlink" x="0px" y="0px" viewBox="0 0 64 64"
	 style="enable-background:new 0 0 64 64;" xml:space="preserve">
<style type="text/css">
	.st0{fill:url(#rect4555_1_);stroke:#999999;stroke-width:1.25;stroke-linecap:round;stroke-linejoin:round;}
	.st1{fill:url(#path7097-5-0_1_);}
</style>
<title  id="title4581"></title>
<linearGradient id="rect4555_1_" gradientUnits="userSpaceOnUse" x1="229.5202" y1="-133.788" x2="285.7949" y2="-56.4871" gradientTransform="matrix(0.8 0 0 -0.8 -173.9456 -44.3535)">
	<stop  offset="0" style="stop-color:#EEEEEE"/>
	<stop  offset="0.5" style="stop-color:#FFFFFF"/>
	<stop  offset="1" style="stop-color:#EEEEEE"/>
</linearGradient>
<path id="rect4555" class="st0" d="M14,0.7h36c2.9,0,5.3,2.4,5.3,5.3v52c0,2.9-2.4,5.3-5.3,5.3H14c-2.9,0-5.3-2.4-5.3-5.3V6
	C8.7,3.1,11.1,0.7,14,0.7z"/>
<g id="text4523">
	<path id="path3978" d="M22.4,14.5c0,0.5-0.1,1-0.3,1.4c-0.2,0.4-0.4,0.8-0.8,1.1c-0.3,0.3-0.8,0.6-1.3,0.7
		c-0.5,0.2-1.1,0.3-1.8,0.3c-0.8,0-1.4-0.1-2-0.3c-0.5-0.2-0.9-0.5-1.2-0.8s-0.5-0.7-0.7-1.1c-0.1-0.4-0.2-0.8-0.2-1.2
		c0-0.3,0.1-0.7,0.2-1c0.1-0.3,0.3-0.6,0.5-0.9c0.2-0.3,0.4-0.5,0.6-0.7c0.3-0.2,0.5-0.4,0.8-0.6c-1.2-0.7-1.8-1.7-1.8-3
		c0-0.5,0.1-0.9,0.3-1.3C15,6.7,15.2,6.4,15.5,6c0.3-0.3,0.7-0.6,1.2-0.7c0.5-0.2,1-0.3,1.6-0.3C19,5,19.6,5.1,20,5.3
		s0.9,0.5,1.2,0.8c0.3,0.3,0.5,0.7,0.7,1c0.1,0.4,0.2,0.8,0.2,1.1c0,0.3-0.1,0.7-0.2,1c-0.1,0.3-0.2,0.6-0.4,0.8
		c-0.2,0.3-0.4,0.5-0.6,0.7c-0.2,0.2-0.4,0.4-0.7,0.5C21.6,12,22.4,13.1,22.4,14.5z M15.9,14.6c0,0.2,0,0.4,0.1,0.7
		c0.1,0.2,0.2,0.4,0.4,0.6c0.2,0.2,0.4,0.4,0.7,0.5c0.3,0.1,0.7,0.2,1.1,0.2c0.4,0,0.8-0.1,1.1-0.2c0.3-0.1,0.6-0.3,0.8-0.5
		c0.2-0.2,0.3-0.4,0.4-0.6c0.1-0.2,0.1-0.5,0.1-0.7c0-0.4-0.1-0.7-0.2-1c-0.1-0.3-0.4-0.5-0.6-0.8c-0.3-0.2-0.6-0.4-1-0.5
		c-0.4-0.2-0.8-0.3-1.3-0.4c-0.5,0.3-1,0.7-1.3,1.1C16.1,13.5,15.9,14,15.9,14.6z M20.4,8.3c0-0.2,0-0.4-0.1-0.6
		c-0.1-0.2-0.2-0.4-0.4-0.6c-0.2-0.2-0.4-0.3-0.6-0.5c-0.3-0.1-0.6-0.2-1-0.2c-0.4,0-0.7,0.1-1,0.2c-0.3,0.1-0.5,0.3-0.6,0.5
		c-0.2,0.2-0.3,0.4-0.4,0.6c-0.1,0.2-0.1,0.4-0.1,0.6c0,0.3,0,0.5,0.1,0.8c0.1,0.3,0.2,0.5,0.5,0.7s0.5,0.4,0.8,0.6
		c0.3,0.2,0.7,0.3,1.2,0.4c0.5-0.3,0.9-0.6,1.2-1C20.3,9.4,20.4,8.9,20.4,8.3z"/>
</g>
<radialGradient id="path7097-5-0_1_" cx="142.4326" cy="-88.976" r="15" gradientTransform="matrix(0.8 0 0 -0.8 -74.9616 -24.1995)" gradientUnits="userSpaceOnUse">
	<stop  offset="0" style="stop-color:#222222"/>
	<stop  offset="1" style="stop-color:#000000"/>
</radialGradient>
<path id="path7097-5-0" class="st1" d="M39,35c-3.4,0-6.2,2.6-6.2,5.7c0,1.1,0.3,2.1,0.9,3c-0.2,0-0.3,0-0.5,0
	c-3.4,0-6.2,2.6-6.2,5.7c0,3.2,2.8,5.7,6.2,5.7c2.1,0,3.9-1,5.1-2.5c-0.2,0.7-0.5,1.6-0.8,2.1c-0.5,1-3,4.2-3,4.2h8.9
	c0,0-2.5-3.2-3-4.2c-0.2-0.5-0.5-1.4-0.7-2.1c1.1,1.5,3,2.5,5.1,2.5c3.4,0,6.2-2.6,6.2-5.7c0-3.2-2.8-5.7-6.2-5.7
	c-0.2,0-0.3,0-0.5,0c0.6-0.9,0.9-1.9,0.9-3C45.2,37.5,42.4,35,39,35z"/>
</svg>
